<svg xmlns="http://www.w3.org/2000/svg" xmlns:xlink="http://www.w3.org/1999/xlink" width="768" height="530" viewBox="0 0 768 530"><defs><path id="dy0da" d="M-550 3a3 3 0 0 1 3-3h974a3 3 0 0 1 3 3v524a3 3 0 0 1-3 3h-974a3 3 0 0 1-3-3z"/><path id="dy0db" d="M-545 8a3 3 0 0 1 3-3h964a3 3 0 0 1 3 3v514a3 3 0 0 1-3 3h-964a3 3 0 0 1-3-3z"/><clipPath id="dy0dc"><use fill="#fff" xlink:href="#dy0da"/></clipPath><clipPath id="dy0dd"><use fill="#fff" xlink:href="#dy0db"/></clipPath></defs><g><g transform="translate(384)"><use fill="#fff" xlink:href="#dy0da"/><use fill="#fff" fill-opacity="0" stroke="#000" stroke-linecap="round" stroke-linejoin="round" stroke-miterlimit="50" stroke-width="6" clip-path="url(&quot;#dy0dc&quot;)" xlink:href="#dy0da"/></g><g transform="translate(384)"><use fill="#fff" xlink:href="#dy0db"/><use fill="#fff" fill-opacity="0" stroke="#000" stroke-linecap="round" stroke-linejoin="round" stroke-miterlimit="50" stroke-width="2" clip-path="url(&quot;#dy0dd&quot;)" xlink:href="#dy0db"/></g></g></svg>